<svg xmlns="http://www.w3.org/2000/svg" viewBox="0 0 320 180" role="img" aria-hidden="true"><defs><linearGradient id="sky" x1="0" y1="0" x2="0" y2="1"><stop offset="0" stop-color="#cfe6f8"/><stop offset="1" stop-color="#f6fafd"/></linearGradient></defs><rect width="320" height="180" fill="url(#sky)"/>
<circle cx="262" cy="38" r="16" fill="#ffffff" opacity=".85"/>
<rect x="0" y="140" width="320" height="40" fill="#e6f0f8"/>
<rect x="96" y="60" width="26" height="86" fill="#1b6ca8"/><polygon points="96,60 109,40 122,60" fill="#1b6ca8"/>
<rect x="198" y="60" width="26" height="86" fill="#1b6ca8"/><polygon points="198,60 211,40 224,60" fill="#1b6ca8"/>
<rect x="122" y="86" width="76" height="60" fill="#2f8fd4"/>
<path d="M138 146 v-34 a22 22 0 0 1 44 0 v34 z" fill="#ffffff"/>
<rect x="103" y="72" width="12" height="16" rx="6" fill="#8fc1e8"/><rect x="205" y="72" width="12" height="16" rx="6" fill="#8fc1e8"/>
<rect x="130" y="94" width="10" height="12" rx="5" fill="#ffffff" opacity=".7"/><rect x="180" y="94" width="10" height="12" rx="5" fill="#ffffff" opacity=".7"/>
<rect x="30" y="120" width="34" height="26" fill="#8fc1e8"/><polygon points="30,120 47,108 64,120" fill="#c1d3e2"/>
<rect x="252" y="118" width="38" height="28" fill="#8fc1e8"/><polygon points="252,118 271,104 290,118" fill="#c1d3e2"/>
</svg>
